<svg xmlns="http://www.w3.org/2000/svg" xmlns:xlink="http://www.w3.org/1999/xlink" width="25" height="25" id="export"><defs><linearGradient id="a"><stop offset="0" stop-color="#5a5a5a"></stop><stop offset="1" stop-color="#656e85"></stop></linearGradient><linearGradient id="b" x1="1056.035" x2="1031.176" y1="544.13" y2="517.701" gradientTransform="translate(-823.821 614.331) scale(.80097)" gradientUnits="userSpaceOnUse" xlink:href="#a"></linearGradient></defs><g transform="translate(0 -1027.362)"><rect width="25" height="25" y="1027.362" fill="url(#b)" rx="5.283" ry="5.283"></rect><path style="text-indent:0;text-align:start;line-height:normal;text-transform:none;block-progression:tb" fill="#fff" fill-rule="evenodd" d="M9.969 5 6 8.813V21h12v-5h-1.031v4H7.03V10l3.5.031v-4h6.438V13H18V5H9.969zM9.53 6.844V9.03L7.25 9l2.281-2.156zm4.625 4.656-3 3 .031.031-.03.031 3 3 .687-.687L13 15h9v-1h-8.938l1.782-1.781-.688-.719z" color="#000" font-family="sans-serif" font-weight="400" overflow="visible" transform="translate(0 1027.362)"></path></g></svg>